<?xml version="1.0" encoding="UTF-8"?><svg id="Layer_1" xmlns="http://www.w3.org/2000/svg" viewBox="0 0 90.5 102.02"><path fill="currentColor" d="M90.48,51.03c0-6.77-.04-13.54.01-20.3.03-4.32-1.77-7.48-5.53-9.57-2.39-1.33-4.75-2.7-7.12-4.06-8.99-5.14-17.99-10.27-26.97-15.44-3.63-2.09-7.26-2.26-10.92-.17C28.38,8.08,16.82,14.7,5.26,21.32,1.7,23.36,0,26.44,0,30.54.02,44.18.02,57.82,0,71.45c0,4.14,1.72,7.24,5.31,9.3,11.51,6.58,23.02,13.16,34.53,19.73,3.61,2.06,7.21,2.06,10.83,0,11.48-6.57,22.96-13.13,34.44-19.68,3.63-2.07,5.4-5.17,5.38-9.36-.04-6.8-.01-13.6-.01-20.4ZM78.59,77.32c-9.12,5.11-18.18,10.34-27.24,15.57-2.56,1.48-5.19,2.48-8.17,1.72-1.15-.29-2.28-.76-3.31-1.34-9.53-5.41-19.03-10.86-28.54-16.3-3.47-1.98-5.18-4.96-5.17-8.94,0-11.37,0-22.73,0-34.1,0-4.12,1.94-7.06,5.5-9.07,8.63-4.89,17.24-9.84,25.86-14.76.81-.46,1.62-.93,2.42-1.4,3.54-2.06,7.07-2.05,10.62,0,6.96,4,13.93,7.98,20.89,11.97,2.43,1.39,4.83,2.82,7.3,4.14,3.85,2.07,5.66,5.24,5.61,9.6-.07,5.53-.02,11.07-.02,16.6s-.07,11,.02,16.5c.07,4.49-1.85,7.63-5.76,9.82Z"/><path fill="currentColor" d="M81.61,51.06c0-5.6-.02-11.2,0-16.8.01-3.07-1.23-5.41-3.9-6.94-9.42-5.4-18.85-10.78-28.27-16.18-2.79-1.6-5.57-1.6-8.36-.01-9.43,5.38-18.86,10.76-28.27,16.17-2.57,1.48-3.91,3.74-3.92,6.74,0,1.13.02,2.27.02,3.4,0,10.03,0,20.07-.03,30.1-.02,3.32,1.34,5.73,4.22,7.37,9.18,5.22,18.35,10.44,27.48,15.74,3.17,1.84,6.14,1.85,9.32,0,9.19-5.34,18.43-10.57,27.65-15.84,2.74-1.56,4.08-3.89,4.06-7.06-.03-5.57,0-11.13,0-16.7ZM23.69,56.29c-3.36-.02-6.01-2.69-6.02-6.05-.01-3.41,2.67-6.1,6.07-6.1,3.4,0,6.08,2.69,6.07,6.1,0,3.4-2.71,6.07-6.12,6.05ZM46.13,56.04c-3.36,0-6.02-2.68-6.02-6.04,0-3.36,2.68-6.03,6.04-6.02,3.36,0,6.02,2.68,6.02,6.04,0,3.36-2.67,6.02-6.04,6.02ZM67.78,56.24c-3.36.02-6.05-2.64-6.06-6-.02-3.36,2.64-6.05,6-6.06,3.37-.01,6.05,2.64,6.06,6,.01,3.37-2.64,6.05-6,6.06Z"/></svg>