<?xml version="1.0" encoding="UTF-8"?><svg id="Layer_1" xmlns="http://www.w3.org/2000/svg" viewBox="0 0 20 21.42"><path d="M9.03,1.25c.6-.34,1.34-.34,1.94,0l7,3.89c.64.35,1.03,1.02,1.03,1.75v7.65c0,.73-.39,1.4-1.03,1.75l-7,3.89c-.6.34-1.34.34-1.94,0l-7-3.89c-.63-.35-1.03-1.02-1.03-1.75v-7.65c0-.73.39-1.4,1.03-1.75l7-3.89Z"  style="fill:none; stroke:currentColor; stroke-width:2px;"/><path fill="currentColor" d="M9.31,3.17c.43-.24.96-.24,1.39,0l5.76,3.17c.46.25.75.74.75,1.26v6.22c0,.53-.29,1.01-.75,1.26l-5.76,3.17c-.43.24-.96.24-1.39,0l-5.76-3.17c-.46-.25-.75-.74-.75-1.26v-6.22c0-.53.29-1.01.75-1.26l5.76-3.17Z" /></svg>