<?xml version="1.0" encoding="UTF-8"?><svg id="Layer_1" xmlns="http://www.w3.org/2000/svg" viewBox="0 0 390 419.44"><path style="fill:currentColor;"  d="M390,294c-.67-1.22-1.7-2.38-1.95-3.68-3.29-17.32-11.4-31.9-24.78-43.38-2.57-2.21-3.34-4.47-3.33-7.7.09-34.66,0-69.31.1-103.97.03-11.06-4.56-19.1-14.23-24.46-45.99-25.51-91.94-51.07-137.89-76.65-8.57-4.77-17.05-4.87-25.65-.08-46.1,25.64-92.21,51.27-138.33,76.88-9.48,5.26-13.98,13.26-13.97,24.11.07,49.82.07,99.64,0,149.46-.02,11.04,4.6,19.09,14.26,24.45,45.69,25.34,91.38,50.69,137,76.16,9.29,5.19,18.15,5.32,27.43.05,15.76-8.96,31.74-17.55,47.49-26.52,2.97-1.69,4.57-1.32,7.3.7,7.7,5.7,15.86,10.76,23.99,16.17-.22.15-1.3.98-2.47,1.63-20.94,11.66-41.82,23.41-62.86,34.89-18.24,9.96-36.66,9.77-54.81-.29-45.42-25.17-90.71-50.56-136.18-75.62-16.51-9.1-27.07-22.2-30.39-40.9-.08-.45-.48-.85-.73-1.27,0-56.33,0-112.67,0-169,.28-.37.75-.71.83-1.13,3.47-18.43,13.94-31.35,30.33-40.28,31.95-17.42,63.4-35.78,95.54-52.85C147.93,19.46,167.14,3.65,192,0c2.33,0,4.67,0,7,0,7.63,2.52,15.86,3.94,22.8,7.73,46.7,25.5,93.12,51.48,139.63,77.34,14.31,7.96,23.25,20.03,27.24,35.86.35,1.38.89,2.72,1.34,4.08v169Z"/><path style="fill:currentColor;" d="M339.17,232.28c-32.24-8.73-60.59-3.04-82.46,22.52-21.88,25.58-23.15,54.44-9.44,85.11-14.16,7.6-28.12,15.72-42.64,22.63-7.62,3.63-16.05,2.33-23.61-1.83-38.06-20.92-76.1-41.89-114.16-62.83-10.39-5.72-15.94-14.46-15.96-26.33-.09-41.16-.09-82.33-.01-123.49.02-11.87,5.52-20.58,15.95-26.31,37.92-20.83,75.8-41.73,113.71-62.59,9.66-5.31,19.42-5.33,29.07-.02,38.06,20.92,76.12,41.85,114.13,62.86,10.17,5.62,15.46,14.27,15.44,26.06-.04,26.5-.01,53-.01,79.49v4.73Z"/><path style="fill:currentColor;"  d="M376,303.37c1.7,28.32-22.4,62.35-62.32,62.49-34.46.12-62.61-28.32-62.45-62.76.16-34.6,28.09-62.01,62.97-62.14,36.32-.14,63.33,31.42,61.8,62.41ZM299.71,317.66c0,6.39-.03,12.01,0,17.64.05,6.21,1.55,7.75,7.6,7.8,4.33.04,8.66.04,12.98,0,5.98-.05,7.7-1.74,7.75-7.72.05-5.77.01-11.55.01-17.73,6.6,0,12.57.08,18.54-.03,5.02-.09,6.94-1.99,7.08-7.01.13-4.49.08-8.99.02-13.48-.08-6.18-1.88-7.95-8.12-7.99-5.75-.04-11.49,0-17.53,0,0-6.77,0-12.74,0-18.71,0-4.47-2.15-6.82-6.7-6.82-4.83,0-9.66-.08-14.48.01-5.56.1-7.08,1.64-7.15,7.25-.07,5.94-.02,11.89-.02,18.27-6.45,0-12.25-.05-18.05.01-5.67.06-7.53,1.89-7.6,7.41-.06,4.49-.05,8.99,0,13.48.06,5.65,1.86,7.52,7.42,7.6,5.8.08,11.61.02,18.23.02Z"/></svg>