<?xml version="1.0" encoding="UTF-8"?><svg id="Layer_1" xmlns="http://www.w3.org/2000/svg" viewBox="0 0 90.5 102.04"><path fill="currentColor"  d="M90.5,51.1c0,6.8-.02,13.6,0,20.4.02,4.11-1.71,7.18-5.27,9.22-11.57,6.62-23.13,13.23-34.71,19.83-3.51,2-7.06,1.99-10.56-.01-11.58-6.6-23.14-13.22-34.71-19.83C1.7,78.66,0,75.57,0,71.48.02,57.84.02,44.21,0,30.58c0-4.14,1.72-7.24,5.32-9.29C16.83,14.7,28.34,8.13,39.85,1.55c3.57-2.04,7.16-2.08,10.74-.04,11.57,6.61,23.14,13.22,34.7,19.84,3.53,2.02,5.22,5.09,5.21,9.15-.02,6.87,0,13.73,0,20.6ZM84.35,51.04c0-5.57-.04-11.13.01-16.7.04-4.28-1.76-7.36-5.49-9.47-9.25-5.23-18.48-10.48-27.66-15.84-4.07-2.38-7.89-2.35-11.96.02-9.14,5.34-18.36,10.57-27.57,15.79-3.75,2.13-5.56,5.24-5.54,9.56.05,11.03.06,22.06,0,33.09-.03,4.49,1.82,7.68,5.77,9.82,4.04,2.19,8,4.53,11.99,6.82,5.38,3.08,10.75,6.16,16.13,9.24,3.48,1.99,6.96,2,10.45.02.38-.21.75-.43,1.13-.64,9.02-5.16,18.01-10.37,27.07-15.46,3.88-2.18,5.77-5.3,5.71-9.75-.08-5.5-.02-11-.02-16.5Z"/><path fill="currentColor"  d="M81.62,51.01c0,5.57-.02,11.13,0,16.7.02,3.2-1.34,5.54-4.11,7.13-9.2,5.25-18.41,10.47-27.57,15.79-3.21,1.87-6.21,1.85-9.41-.01-9.1-5.29-18.25-10.49-27.4-15.69-2.84-1.62-4.26-3.97-4.26-7.25.02-11.13.02-22.26,0-33.39,0-3.25,1.44-5.58,4.23-7.17,9.14-5.21,18.29-10.41,27.4-15.68,3.19-1.85,6.22-1.89,9.43-.02,9.16,5.31,18.37,10.54,27.57,15.79,2.78,1.58,4.13,3.92,4.11,7.12-.03,5.57,0,11.13,0,16.7ZM51.55,44.61c0-3.6.01-7.09,0-10.58,0-.92-.07-1.85-.2-2.75-.2-1.38-.82-2.53-1.87-3.52-1.39-1.31-3-1.61-4.81-1.56-2.34.06-4,1.2-5.05,3.15-1.25,2.31-.82,4.88-.8,7.37.02,2.61,0,5.22,0,7.9-.34,0-.7,0-1.06,0-3.6,0-7.2-.04-10.8.03-1.02.02-2.13.19-3.04.63-2.51,1.22-3.69,3.2-3.63,6.15.06,2.57,1.94,4.81,3.97,5.52,2.09.74,4.32.46,6.49.46,2.71,0,5.42,0,8.21,0,0,.29,0,.64,0,1-.07,3.52-.17,7.04-.19,10.56-.01,2.28.63,4.32,2.58,5.75,2.94,2.16,6.24,1.63,8.62-.94,1.26-1.36,1.57-3.06,1.58-4.83.03-3.53,0-7.07,0-10.6v-1.13c.48,0,.84,0,1.2,0,3.35.07,6.71.16,10.06.19,1.97.01,3.79-.36,5.33-1.82,1.62-1.54,2.47-4.02,1.82-6.12-.99-3.23-3.4-4.78-6.57-4.83-3.9-.07-7.8-.02-11.85-.02Z"/></svg>