<?xml version="1.0" encoding="utf-8"?>
<svg width="1224px" height="101px" viewBox="0 0 1224 101" version="1.1" xmlns:xlink="http://www.w3.org/1999/xlink" xmlns="http://www.w3.org/2000/svg">
  <g id="empty-states-waves">
    <path d="M469.046 124L0.0766487 124C0.0255496 71.8679 0 42.5943 0 36.1792C22.6774 18.2659 52.3492 9.30931 89.0152 9.30931C158.145 9.30931 252.371 51.6115 363.916 51.7598C493.189 51.9316 512.731 -4.59036e-13 585.404 0C658.078 4.61617e-13 702.32 49.9265 805.24 49.9265C908.159 49.9265 940.377 10.4412 1042.37 9.30931C1176.57 7.81982 1269.61 51.7598 1347.01 51.7598C1424.4 51.7598 1424.4 17.8452 1544.61 17.1769C1634.42 16.6775 1713.4 51.9316 1816.32 51.9316C1928.37 51.9316 1949.7 30.9069 2015.57 30.9069C2109.23 30.9069 2174.74 59.952 2200 59.952C2200 59.952 2195.06 113.574 2195.06 113.574L995.545 120.82L469.046 124Z" id="Path" fill="#4292F4" fill-opacity="0.23281808" stroke="none" />
    <path d="M468.923 112L0 112C0.0222753 76.447 0.033413 54.8283 0.033413 47.1437C28.9451 55.3317 52.2374 57.1892 85.7044 57.1892C197.282 57.1892 291.476 14.9701 360.605 14.9701C406.692 14.9701 469.311 42.5654 518.713 42.5654C654.566 42.5654 671.002 14.6472 787.126 14.6472C900.748 14.6472 910.629 49.2126 1055.54 49.2126C1183.71 49.2126 1260.11 22.7473 1347.01 22.7473C1490.27 22.7473 1490.27 57.1892 1608.83 57.1892C1722.85 57.1892 1809.73 8 1916.77 8C2023.8 8 2200 49.2126 2200 49.2126L2200 110.519L468.923 112Z" id="Path" fill="#4292F4" fill-opacity="0.3237537" stroke="none" />
  </g>
</svg>